<?xml version="1.0"?><svg width="230.3125" height="155.40625" xmlns="http://www.w3.org/2000/svg">
 <title>Phone icon grey</title>

 <metadata id="metadata7">image/svg+xmlphone icon07 12 2006molumen, Rick van der Zwetphoneline_articonblackwhitesilhouettenumbercomposeallomoshi-moshiringphone icon</metadata>
 <g>
  <title>Layer 1</title>
  <g id="layer1">
   <path fill="#7f7f7f" stroke-linecap="square" stroke-linejoin="round" stroke-miterlimit="4" stroke-dashoffset="0" id="path2198" d="m115.156258,6.134514c-33.676636,0 -64.326584,11.289959 -87.183323,29.732708c-10.999531,3.58765 -18.881559,13.228539 -18.881559,24.551788c0,4.183865 1.081551,8.123806 2.99342,11.628284l50.7442,0c1.911858,-3.504478 3.022202,-7.444405 3.022202,-11.628284c0,-6.512566 -2.599129,-12.471298 -6.90789,-17.039459c16.695793,-8.643356 35.855011,-13.556728 56.212952,-13.556728c20.357933,0.000011 39.517143,4.913372 56.212959,13.556728c-4.308792,4.568153 -6.907913,10.526894 -6.907913,17.039459c0.000015,4.183865 1.081573,8.123806 2.993439,11.628284l50.744202,0c1.911865,-3.504478 3.022186,-7.444405 3.022186,-11.628284c0,-11.32325 -7.882019,-20.964146 -18.881561,-24.551788c-22.85672,-18.442749 -53.506683,-29.732708 -87.183311,-29.732708zm0,26.365108c-26.834679,0 -48.614265,23.030769 -48.614273,51.406216c0,2.373932 0.165443,4.70549 0.460518,6.994232c-4.727921,2.728729 -7.915283,7.827896 -7.915283,13.700653l0,28.840439c0,8.762543 7.068024,15.830582 15.830589,15.830582l80.476906,0c8.762543,0 15.830566,-7.068024 15.830566,-15.830582l0,-28.840439c0,-5.867554 -3.19429,-10.941353 -7.915283,-13.671867c0.297668,-2.298439 0.460541,-4.638573 0.460541,-7.023018c0,-28.375431 -21.779602,-51.406235 -48.614281,-51.406216zm0,15.341278c13.995125,0 25.357719,10.51886 25.357719,23.48682c0,12.967979 -11.362595,23.51561 -25.357719,23.51561c-13.995132,0.000008 -25.357712,-10.547646 -25.357712,-23.51561c0.000008,-12.967937 11.362587,-23.48682 25.357712,-23.48682z"/>
  </g>
 </g>
</svg>